PathFileType	4	(X/Y/Z)	C:/Users/beibeiliu/ov580/test_trc/User1\sequence.30_training_dense_left.trc
DataRate	CameraRate	NumFrames	NumMarkers	Units	OrigDataRate	OrigDataStartFrame	OrigNumFrames
120	120	23	19	mm	120	57	227
Frame#	Time	ThumbCMC			ThumbMCP			ThumbIP			ThumbTip			IndexMCP			IndexPIP			IndexTip			MiddleMCP			MiddlePIP			MiddleTip			RingMCP			RingPIP			RingTip			PinkyMCP			PinkyPIP			PinkyTip			BackHand1			BackHand2			BackHand3	
		X0	Y0	Z0	X1	Y1	Z1	X2	Y2	Z2	X3	Y3	Z3	X4	Y4	Z4	X5	Y5	Z5	X6	Y6	Z6	X7	Y7	Z7	X8	Y8	Z8	X9	Y9	Z9	X10	Y10	Z10	X11	Y11	Z11	X12	Y12	Z12	X13	Y13	Z13	X14	Y14	Z14	X15	Y15	Z15	X16	Y16	Z16	X17	Y17	Z17	X18	Y18	Z18	
56	0.466667	-148.524	16.6688	40.1011	-158.822	33.6344	18.9629	-172.347	41.3194	-2.71675	-182.097	53.5464	-16.3495	-157.451	-25.8633	-26.2709	-165.985	-37.9835	-46.6105	-172.585	-52.4341	-64.0181	-144.389	-51.2822	-29.16	-151.878	-66.1034	-51.9142	-157.273	-84.4222	-73.8506	-113.818	-55.6948	-25.5178	-110.04	-69.2028	-55.7882	-108.286	-73.8946	-80.7151	-82.8848	-53.671	-10.6185	-71.7962	-56.4023	-29.0658	-57.8793	-61.708	-53.4487	-117.22	-48.4432	23.4546	-118.502	-42.5344	61.1264	-145.658	-19.823	33.9007	
57	0.475	-146.252	16.788	44.2686	-155.338	31.3698	20.9652	-168.704	37.5999	-4.82304	-179.73	49.3172	-18.7159	-158.606	-26.6856	-27.8924	-165.104	-41.3034	-46.2007	-173.673	-55.7469	-64.8407	-144.108	-52.4832	-27.305	-151.172	-64.4417	-47.0233	-159.433	-84.5896	-74.0318	-115.335	-58.269	-28.9433	-114.197	-68.9567	-53.4785	-109.304	-74.2846	-75.4902	-81.6039	-55.1976	-10.1295	-68.08	-59.5405	-30.0365	-59.8854	-65.3111	-50.959	-116.295	-46.1682	26.8051	-122.196	-39.835	59.4543	-145.403	-21.662	37.5579	
58	0.483333	-149.589	18.9724	44.6147	-155.405	31.2219	19.8112	-169.166	38.4497	-0.569913	-181.944	48.9518	-18.9029	-157.304	-26.3034	-24.6563	-165.12	-40.5332	-44.2245	-174.648	-58.9765	-65.4457	-142.622	-51.2712	-25.5356	-153.254	-67.0367	-51.3775	-161.29	-84.1822	-73.4886	-115.015	-58.2869	-24.4601	-113.175	-70.2285	-52.6612	-110.399	-75.3135	-74.4201	-81.2928	-56.3944	-9.85122	-72.102	-59.3117	-28.7838	-60.8159	-65.2678	-53.2925	-120.485	-44.7069	24.1981	-119.694	-40.6044	60.9958	-145.442	-23.1124	36.3605	
59	0.491667	-149.884	19.282	45.1674	-156.222	31.5382	19.5758	-169.591	38.1532	-1.76516	-180.8	47.5575	-20.8763	-161.082	-27.4685	-28.0366	-170.519	-40.0133	-47.8901	-172.456	-55.9731	-63.4933	-144.139	-53.9778	-27.6305	-153.457	-64.7374	-47.8288	-158.137	-84.5548	-71.4992	-115.264	-59.9585	-27.4453	-115.457	-69.5247	-54.4018	-110.408	-79.3545	-78.8841	-82.5414	-54.9449	-8.41819	-68.6918	-60.268	-31.6687	-62.5513	-63.6777	-51.4635	-116.672	-47.4697	29.4319	-119.289	-43.1018	60.6688	-148.382	-20.9776	36.2959	
60	0.5	-150.935	18.4251	45.1726	-156.425	30.2693	20.2089	-172.817	37.9701	-4.99369	-181.121	45.9836	-20.2832	-157.25	-26.0369	-23.6017	-166.329	-41.2395	-44.3305	-173.845	-60.1071	-65.9281	-146.961	-50.6457	-26.946	-152.249	-64.7866	-47.2717	-163.573	-83.3128	-73.5676	-115.412	-59.8697	-25.5588	-113.103	-71.8672	-51.8072	-111.423	-77.0958	-75.3677	-83.5115	-54.8266	-9.90996	-69.6689	-60.3206	-27.7023	-61.7618	-67.8391	-49.3438	-119.381	-46.3012	24.8932	-120.698	-40.2222	62.0538	-143.553	-23.7267	36.9965	
61	0.508333	-151.69	18.9196	43.5271	-158.503	32.9037	20.0844	-171.699	40.0107	-2.08304	-183.984	49.4886	-20.5495	-155.648	-27.6202	-23.6476	-165.921	-42.4214	-45.2251	-175.257	-55.7155	-65.4443	-145.395	-51.5204	-28.6807	-152.002	-67.1381	-50.7482	-160.651	-83.1758	-73.965	-112.02	-59.5869	-23.7943	-113.645	-70.0791	-51.6255	-107.275	-78.9526	-76.7494	-79.0041	-56.0418	-9.48797	-69.0506	-59.6996	-28.957	-62.1925	-63.9888	-50.9766	-117.134	-46.4149	24.8897	-119.663	-40.245	58.75	-148.912	-20.7937	38.555	
62	0.516667	-150.662	19.9386	44.574	-158.962	32.7621	17.3517	-169.043	39.546	-1.51294	-182.329	48.5039	-21.8933	-157.515	-27.2197	-26.4957	-165.71	-39.4596	-44.8002	-171.584	-57.3831	-67.8397	-143.388	-49.3084	-27.5966	-152.789	-64.2897	-52.405	-155.983	-82.7849	-73.322	-111.682	-58.3837	-26.0857	-113.147	-67.3942	-50.9948	-105.534	-75.8572	-78.6506	-80.0042	-53.5131	-8.78567	-67.8734	-57.6211	-27.3561	-58.7957	-64.9464	-50.3911	-119.812	-43.6175	30.075	-121.287	-37.3304	59.8276	-146.38	-20.3307	37.4559	
63	0.525	-148.888	20.153	44.0128	-157.263	34.3323	19.8863	-168.689	40.3607	-1.69072	-180.199	50.3535	-20.6076	-155.549	-23.9913	-26.4218	-164.106	-38.481	-48.2426	-170.626	-53.421	-68.9776	-140.728	-49.2639	-29.2682	-148.156	-60.8284	-51.0555	-154.312	-77.1021	-77.3155	-110.736	-53.9697	-23.7821	-108.85	-63.914	-53.6702	-99.9332	-70.3333	-77.5465	-81.7161	-50.2757	-7.86637	-66.2442	-54.1298	-25.658	-59.7316	-58.6831	-51.6578	-119.252	-41.1729	28.379	-118.047	-40.6253	62.9782	-147.367	-20.0475	35.8035	
64	0.533333	-147.543	18.3142	43.0028	-155.308	36.5752	22.2645	-171.564	42.6567	-4.13675	-178.258	51.9251	-19.0878	-153.174	-23.896	-29.2463	-161.003	-36.5277	-51.1504	-165.904	-47.2436	-69.5083	-139.114	-45.3891	-30.9566	-141.918	-59.7175	-56.6075	-144.244	-74.9147	-81.9048	-105.711	-53.7117	-27.1505	-101.753	-59.4521	-54.2579	-92.0781	-59.5053	-81.4036	-78.758	-46.4085	-10.1735	-63.9253	-49.293	-27.9666	-52.0841	-52.4594	-48.4359	-116.489	-41.8189	28.0002	-117.896	-37.3686	60.8174	-144.601	-17.4367	35.9417	
65	0.541667	-147.369	19.6716	42.9386	-156	34.8392	17.2403	-166.039	43.685	-0.0827227	-178.609	52.8156	-17.4159	-148.933	-18.5059	-27.5153	-152.865	-32.4998	-53.6457	-157.636	-46.6338	-75.6063	-132.766	-42.1678	-34.3768	-130.21	-55.422	-60.2412	-127.732	-67.0999	-84.6005	-102.197	-45.4503	-30.9038	-91.3285	-49.3102	-59.0632	-76.3986	-45.5564	-81.3795	-72.9933	-41.8728	-12.5571	-56.7188	-41.5748	-26.6128	-50.3927	-38.404	-52.7576	-113.602	-39.2136	29.1746	-116.299	-40.546	58.4767	-142.116	-20.0681	36.7582	
66	0.55	-148.411	21.3525	42.2133	-156.462	37.0837	20.9294	-167.205	43.6646	-2.71464	-179.754	54.75	-17.1024	-145.05	-14.6277	-30.6988	-147.187	-25.7422	-56.4628	-148.568	-37.6512	-80.719	-124.3	-40.0135	-37.8932	-124.034	-45.3389	-62.2171	-113.564	-54.9576	-94.4038	-94.3579	-41.5086	-31.7729	-79.5287	-41.9972	-58.3863	-66.2181	-29.494	-77.2887	-69.5515	-39.4003	-7.43282	-55.0053	-33.3243	-26.2438	-39.7982	-26.0019	-46.6026	-113.465	-38.7187	28.1558	-114.957	-37.5973	57.6744	-142.161	-18.6295	35.6871	
67	0.558333	-149.511	22.0323	41.418	-155.008	37.9564	20.3085	-168.634	45.2971	-3.59056	-176.783	53.554	-21.2223	-139.207	-13.5025	-34.4448	-140.727	-19.7449	-59.9601	-140.262	-29.1329	-84.7675	-118.845	-35.1207	-39.336	-113.942	-40.6445	-68.5549	-102.275	-44.4722	-95.9706	-90.897	-37.2307	-32.4863	-73.32	-30.148	-60.3312	-57.2569	-13.1914	-74.9247	-63.9951	-34.8686	-10.8516	-48.6575	-26.1521	-26.4871	-37.9562	-10.7972	-46.7472	-112.453	-39.6035	26.4404	-116.043	-35.65	55.6972	-141.018	-16.8517	33.4606	
68	0.566667	-149.246	22.7945	42.9127	-156.445	38.8171	20.5365	-165.197	43.6631	-1.37758	-177.636	55.1236	-18.7466	-139.198	-10.5457	-39.5663	-136.892	-16.871	-67.6402	-129.091	-22.6034	-89.9504	-117.928	-32.9297	-41.8493	-109.323	-34.2905	-68.7271	-96.9384	-29.9768	-98.1583	-91.7935	-33.4537	-32.4447	-72.1088	-23.9118	-57.9975	-52.7844	-6.47016	-68.0792	-63.3424	-33.8527	-8.97039	-50.7264	-20.7567	-26.1524	-42.3982	-2.70454	-43.1863	-112.685	-38.813	22.2021	-116.592	-39.3441	56.837	-139.583	-17.0564	32.1413	
69	0.575	-147.259	20.1382	44.5326	-156.08	35.7734	18.3833	-168.025	42.7651	-3.18328	-178.139	54.2607	-17.2565	-140.508	-6.4187	-41.2711	-132.177	-10.4989	-69.4104	-121.168	-11.7475	-92.7621	-114.013	-28.3987	-46.0639	-103.622	-25.7907	-70.6674	-85.0701	-12.5467	-98.1814	-86.6258	-30.7946	-32.3069	-68.784	-18.3581	-54.2103	-53.2364	7.15558	-60.8937	-63.9391	-30.2875	-10.3597	-53.0195	-14.1245	-24.5014	-43.5249	5.80164	-36.3016	-112.81	-40.6231	26.2785	-116.677	-38.7103	60.7795	-140.941	-17.4713	33.5242	
70	0.583333	-151.634	21.0957	44.7347	-153.891	33.9322	20.7093	-168.158	42.7154	-2.29305	-179.379	52.4476	-18.1401	-139.994	-5.04234	-41.0114	-133.633	-4.79409	-65.3351	-113.551	-1.4914	-93.7641	-114.931	-20.7058	-44.0188	-98.3179	-14.3203	-69.4464	-79.8164	6.48231	-89.0928	-86.0561	-26.6777	-30.9051	-66.7868	-3.10858	-50.8369	-49.7601	23.5894	-46.484	-64.372	-26.5827	-9.9953	-51.5108	-10.0901	-19.2183	-49.9666	21.2231	-27.3929	-112.333	-41.0278	23.9131	-121.418	-35.7611	58.9737	-142.798	-17.388	34.5318	
71	0.591667	-152.774	19.497	41.9125	-156.654	36.7295	23.8769	-166.281	41.8171	-1.65944	-179.477	54.6144	-17.2169	-134.079	-5.68366	-40.6048	-125.43	-0.811563	-68.7187	-105.744	8.77156	-90.8072	-111.919	-18.2875	-43.406	-95.1475	-3.63343	-67.1967	-69.2892	21.2752	-79.281	-84.7511	-18.9769	-31.318	-66.0007	0.392814	-42.665	-50.1987	31.2773	-30.6653	-68.5493	-26.9576	-5.67889	-55.2137	-2.74582	-16.0701	-54.4007	29.0106	-15.728	-113.522	-40.1623	22.3411	-122.014	-38.9193	57.7226	-146.544	-16.2685	32.0151	
72	0.6	-153.802	21.8477	46.1823	-156.859	36.9699	22.7308	-169.099	45.0312	-0.97993	-176.458	53.8464	-18.7558	-133.322	-2.75342	-41.9442	-120.733	1.90093	-67.2802	-101.614	15.7861	-85.2347	-105.957	-14.859	-44.7484	-84.7142	2.21642	-63.4851	-62.4648	26.0484	-67.4108	-82.5581	-17.518	-28.7245	-62.857	8.6385	-36.9064	-52.7522	35.4381	-20.0432	-72.3829	-24.6616	-7.14984	-55.6129	-1.63708	-12.4466	-54.5151	29.4812	-2.86756	-115.549	-42.0402	24.6633	-125.935	-38.6825	59.9597	-145.642	-17.4451	33.9535	
73	0.608333	-151.912	21.745	46.43	-154.637	35.5009	19.588	-164.961	45.6631	-6.0707	-173.84	59.3165	-17.3266	-132.452	3.01395	-41.2877	-117.246	11.0829	-67.8725	-89.0927	23.5011	-80.5818	-107.397	-10.0244	-43.1987	-84.2691	4.43166	-58.8596	-55.5812	31.4206	-57.625	-85.4189	-16.828	-27.7267	-61.9133	10.9067	-31.5122	-50.5358	33.2644	-11.0641	-70.4476	-23.898	-9.01866	-54.1182	-1.42158	-7.85333	-62.8293	26.6841	7.69005	-119.888	-38.6329	20.0328	-124.584	-41.5656	54.4657	-146.2	-16.1157	30.6776	
74	0.616667	-149.096	22.8099	44.9073	-155.117	41.8384	20.6888	-160.943	49.7594	-7.08768	-169.408	64.1027	-17.9268	-128.322	7.2205	-42.0985	-109.224	14.3091	-64.7495	-83.7866	29.8303	-74.7463	-105.166	-7.25341	-44.7073	-80.3699	7.53682	-55.5189	-55.3015	31.1249	-51.6618	-88.084	-17.2294	-27.0988	-58.1295	6.74056	-28.9593	-49.6323	24.714	-10.4526	-72.1773	-29.1704	-7.19955	-58.8044	-6.48112	-6.81483	-64.7204	19.5685	12.8474	-120.615	-39.6875	23.2532	-133.775	-37.656	55.2116	-149.346	-11.7523	30.9807	
75	0.625	-148.73	29.7243	44.7879	-148.842	45.8671	20.5627	-156.05	55.8568	-2.82376	-160.421	69.8532	-18.0578	-126.064	9.44491	-41.8932	-102.151	18.1826	-62.6973	-77.3309	31.8151	-68.8505	-107.939	-5.76342	-43.1301	-79.2863	6.308	-53.8228	-48.4534	27.1358	-44.0786	-87.4476	-20.212	-27.0355	-62.4392	1.72027	-29.9228	-45.2424	19.795	-4.99793	-80.6019	-32.1755	-6.83748	-58.7399	-12.3374	-4.90515	-65.6763	13.995	15.6803	-129.241	-34.7071	16.8635	-138.851	-34.2145	56.2802	-151.669	-8.92997	33.6704	
76	0.633333	-143.544	35.2838	45.1402	-142.373	52.7509	24.5874	-145.314	59.8227	-2.06966	-151.105	77.8778	-15.2313	-127.379	20.6503	-39.2243	-102.459	25.1614	-60.3778	-71.7728	28.1375	-62.5292	-109.078	-2.74135	-43.9093	-79.4689	4.39646	-53.4626	-49.5852	19.3108	-44.3913	-96.1049	-19.0511	-29.0369	-61.6612	-7.01853	-30.0439	-45.5191	6.19276	-9.646	-84.7428	-36.5073	-9.4325	-63.1537	-19.4191	-6.64674	-61.8893	7.92191	17.6929	-135.202	-31.4805	21.2944	-142.922	-34.7241	52.3088	-153.079	-2.5375	30.3315	
77	0.641667	-132.981	36.397	51.9517	-130.112	54.5617	27.7705	-133.549	69.2986	4.14235	-135.264	84.042	-7.73974	-122.91	23.6618	-36.6748	-97.5907	26.0531	-57.3223	-64.6664	25.1232	-58.9457	-113.277	2.18099	-41.7898	-84.3142	5.38789	-53.0352	-48.7678	8.33304	-43.5193	-99.8112	-19.9966	-29.6796	-65.9109	-13.8003	-32.3682	-43.4685	-3.37212	-13.2334	-93.1872	-36.4256	-12.1874	-68.1105	-23.8753	-8.88753	-61.2801	-2.67585	9.46641	-143.011	-27.7394	19.5944	-147.148	-27.6269	55.273	-152.258	5.16268	33.5847	
78	0.65	-123.498	43.0646	57.5548	-118.101	58.0166	31.6005	-118.475	71.7426	10.5166	-118.331	87.1584	-2.77368	-115.743	30.6152	-34.1672	-94.1965	29.777	-52.9456	-63.2877	22.5346	-55.0965	-115.624	3.00689	-38.0189	-81.2496	4.73915	-53.9394	-48.9627	4.10201	-47.0454	-108.328	-18.0098	-28.7877	-73.0026	-19.9429	-37.3025	-48.4766	-15.1089	-24.1981	-104.959	-37.4743	-10.4139	-73.6602	-29.7998	-12.6653	-57.3229	-12.1104	3.01128	-144.234	-16.9481	24.1541	-149.497	-19.236	55.4789	-146.771	16.8634	38.9525	
